<?xml version="1.0" standalone="no"?><!DOCTYPE svg PUBLIC "-//W3C//DTD SVG 1.1//EN" "http://www.w3.org/Graphics/SVG/1.1/DTD/svg11.dtd"><svg t="1590576226759" class="icon" viewBox="0 0 1026 1024" version="1.1" xmlns="http://www.w3.org/2000/svg" p-id="1258" xmlns:xlink="http://www.w3.org/1999/xlink" width="200.390625" height="200"><defs><style type="text/css"></style></defs><path d="M614.4 768c-6.981818-13.963636-25.6-20.945455-41.890909-13.963636-44.218182 18.618182-93.090909 27.927273-141.963636 27.927273l0 0c-202.472727 0-365.381818-160.581818-365.381818-358.4 0-197.818182 162.909091-358.4 365.381818-358.4 202.472727 0 365.381818 160.581818 365.381818 358.4 0 107.054545-46.545455 202.472727-121.018182 267.636364-9.309091 9.309091-9.309091 23.272727 0 32.581818l293.236364 288.581818c13.963636 11.636364 34.909091 11.636364 46.545455 0 13.963636-11.636364 13.963636-32.581818 0-46.545455l0 0L749.381818 707.490909c69.818182-74.472727 111.709091-174.545455 111.709091-283.927273C861.090909 190.836364 667.927273 0 430.545455 0 193.163636 0 0 190.836364 0 423.563636c0 235.054545 193.163636 423.563636 430.545455 423.563636 60.509091 0 116.363636-11.636364 167.563636-32.581818C616.727273 807.563636 623.709091 786.618182 614.4 768L614.4 768zM430.545455 781.963636" p-id="1259"></path></svg>